<svg xmlns="http://www.w3.org/2000/svg" xmlns:xlink="http://www.w3.org/1999/xlink" width="500" zoomAndPan="magnify" viewBox="0 0 375 374.999991" height="500" preserveAspectRatio="xMidYMid meet" version="1.0"><defs><g/><clipPath id="cf6295d9e1"><path d="M 266.40625 193.230469 L 375 193.230469 L 375 301.824219 L 266.40625 301.824219 Z M 266.40625 193.230469 " clip-rule="nonzero"/></clipPath><clipPath id="51d66ec232"><path d="M 320.703125 193.230469 L 375 247.527344 L 320.703125 301.824219 L 266.40625 247.527344 Z M 320.703125 193.230469 " clip-rule="nonzero"/></clipPath></defs><g fill="#ededed" fill-opacity="1"><g transform="translate(1.404774, 322.683228)"><g><path d="M 2.96875 -295.4375 C 2.96875 -295.4375 20.171875 -290.390625 20.171875 -237 L 20.171875 -59.625 C 20.171875 -6.234375 2.96875 -1.1875 2.96875 -1.1875 L 2.96875 0 L 108.5625 0 L 108.5625 -1.1875 C 108.5625 -1.1875 91.359375 -6.234375 91.359375 -59.625 L 91.359375 -173.828125 C 101.453125 -155.4375 105.59375 -144.75 115.09375 -126.359375 C 135.265625 -87.203125 149.203125 -60.21875 170.5625 -21.359375 C 180.046875 -4.15625 188.0625 0 206.453125 0 L 267.265625 0 L 267.265625 -1.1875 C 256.578125 -5.9375 215.9375 -88.09375 202.890625 -111.53125 C 185.6875 -142.078125 177.375 -167.296875 157.21875 -167.296875 L 124.28125 -167.296875 C 124.28125 -167.296875 97.296875 -166.109375 97.296875 -185.6875 C 97.296875 -207.9375 119.25 -237.296875 158.390625 -237.296875 C 187.765625 -237.296875 201.40625 -228.109375 223.65625 -209.421875 L 250.9375 -278.234375 C 242.9375 -293.65625 226.625 -301.078125 202.890625 -301.078125 C 150.09375 -301.078125 97 -248.28125 91.359375 -191.625 L 91.359375 -237 C 91.359375 -290.390625 108.5625 -295.4375 108.5625 -295.4375 L 108.5625 -296.625 L 2.96875 -296.625 Z M 2.96875 -295.4375 "/></g></g></g><g clip-path="url(#cf6295d9e1)"><g clip-path="url(#51d66ec232)"><path fill="#ededed" d="M 266.40625 193.230469 L 375 193.230469 L 375 301.824219 L 266.40625 301.824219 Z M 266.40625 193.230469 " fill-opacity="1" fill-rule="nonzero"/></g></g></svg>